<svg version="1.1" id="Layer_1" xmlns="http://www.w3.org/2000/svg" x="0" y="0" viewBox="0 0 64 64" style="enable-background:new 0 0 64 64" xml:space="preserve"><style>.st11,.st17,.st2,.st3{fill:#ec407a;stroke:#0277bd;stroke-linecap:round;stroke-linejoin:round;stroke-miterlimit:10}.st11,.st17,.st3{fill:#ffa726}.st11,.st17{fill:#eee}.st17{fill:none}</style><g id="Container_Crane"><path class="st11" d="M7.5 63.5c-.4 0-.7-.2-.9-.5-.3-.5-.1-1.1.4-1.3l27.2-14c.5-.3 1.1-.1 1.3.4.3.5.1 1.1-.4 1.3L8 63.4c-.2.1-.3.1-.5.1z"/><path class="st11" d="M36.5 63.5c-.2 0-.3 0-.5-.1l-27.2-14c-.5-.3-.7-.9-.4-1.3.3-.5.9-.7 1.3-.4l27.2 14c.5.3.7.9.4 1.3-.1.3-.4.5-.8.5z"/><path class="st11" d="M9.3 49.5c-.3 0-.7-.2-.9-.5-.3-.5-.1-1.1.4-1.4l23.8-14c.5-.3 1.1-.1 1.4.4.3.5.1 1.1-.4 1.4l-23.8 14c-.2.1-.4.1-.5.1z"/><path class="st11" d="M34.7 49.5c-.2 0-.3 0-.5-.1l-23.8-14c-.5-.3-.6-.9-.4-1.4.3-.5.9-.6 1.4-.4l23.8 14c.5.3.6.9.4 1.4-.2.3-.5.5-.9.5z"/><path class="st11" d="M11 35.5c-.3 0-.6-.2-.8-.4-.3-.5-.2-1.1.3-1.4l20.2-14c.5-.3 1.1-.2 1.4.3.3.5.2 1.1-.3 1.4l-20.2 14c-.2 0-.4.1-.6.1z"/><path class="st11" d="M33 35.5c-.2 0-.4-.1-.6-.2l-20.2-14c-.5-.3-.6-.9-.3-1.4.3-.5.9-.6 1.4-.3l20.2 14c.5.3.6.9.3 1.4-.2.3-.5.5-.8.5z"/><path class="st11" d="M12.8 21.5c-.3 0-.6-.1-.8-.4-.4-.4-.3-1.1.1-1.4l16.8-14c.4-.4 1.1-.3 1.4.1.4.4.3 1.1-.1 1.4l-16.8 14c-.2.2-.4.3-.6.3z"/><path class="st11" d="M31.2 21.5c-.2 0-.5-.1-.6-.2l-16.8-14c-.4-.4-.5-1-.1-1.4.4-.4 1-.5 1.4-.1l16.8 14c.4.4.5 1 .1 1.4-.2.2-.5.3-.8.3z"/><path class="st11" d="M36.5 63.5c-.5 0-.9-.4-1-.9l-7-56c-.1-.5.3-1 .9-1.1.5-.1 1 .3 1.1.9l7 56c.1.5-.3 1-.9 1.1h-.1zM7.5 63.5h-.1c-.5-.1-.9-.6-.9-1.1l7-56c.1-.5.6-.9 1.1-.9.5.1.9.6.9 1.1l-7 56c-.1.5-.5.9-1 .9zM50 12.5h3v6h-3z"/><path class="st17" d="M48.5 32c0 1.7 1.3 3 3 3s3-1.3 3-3-1.3-3-3-3v-4"/><circle class="st2" cx="51.5" cy="22.5" r="4"/><circle class="st2" cx="51.5" cy="22.5" r="1.5"/><path class="st17" d="m62.5 38.5-11-6-11 6"/><path d="M62.5 53.5h-22c-.6 0-1-.4-1-1v-13c0-.6.4-1 1-1h22c.6 0 1 .4 1 1v13c0 .6-.4 1-1 1z" style="fill:#81d4fa;stroke:#0277bd;stroke-linecap:round;stroke-linejoin:round;stroke-miterlimit:10"/><path class="st3" d="M57.5 12.5H2c-.8 0-1.5-.7-1.5-1.5v0c0-.8.7-1.5 1.5-1.5h55.5c.8 0 1.5.7 1.5 1.5v0c0 .8-.7 1.5-1.5 1.5zM34 5 10 .5v9h24z"/><path class="st11" d="M.5 63.5h43M12.5 4.5h5v5h-5z"/><path style="fill:none;stroke:#e1f5fe;stroke-linecap:round;stroke-linejoin:round;stroke-miterlimit:10" d="M41.5 40.5h20"/><path style="fill:none;stroke:#29b6f6;stroke-linecap:round;stroke-linejoin:round;stroke-miterlimit:10" d="M41.5 51.5h20"/><path class="st11" d="M60 43v6M47.2 43v6M55.8 43v6M51.5 43v6M43 43v6"/></g></svg>